<svg width="1100" height="170" viewBox="0 0 1100 170" fill="none" xmlns="http://www.w3.org/2000/svg">
<rect width="1100" height="170" fill="black"/>
<path d="M87 45.6429H95.0357V53.6786H87V45.6429ZM95.0357 45.6429H103.071V53.6786H95.0357V45.6429ZM95.0357 53.6786H103.071V61.7143H95.0357V53.6786ZM95.0357 61.7143H103.071V69.75H95.0357V61.7143ZM95.0357 69.75H103.071V77.7857H95.0357V69.75ZM87 69.75H95.0357V77.7857H87V69.75ZM87 61.7143H95.0357V69.75H87V61.7143ZM87 53.6786H95.0357V61.7143H87V53.6786ZM87 77.7857H95.0357V85.8214H87V77.7857ZM87 85.8214H95.0357V93.8571H87V85.8214ZM87 93.8571H95.0357V101.893H87V93.8571ZM95.0357 85.8214H103.071V93.8571H95.0357V85.8214ZM95.0357 77.7857H103.071V85.8214H95.0357V77.7857ZM95.0357 93.8571H103.071V101.893H95.0357V93.8571ZM95.0357 101.893H103.071V109.929H95.0357V101.893ZM87 109.929H95.0357V117.964H87V109.929ZM87 101.893H95.0357V109.929H87V101.893ZM87 117.964H95.0357V126H87V117.964ZM95.0357 117.964H103.071V126H95.0357V117.964ZM95.0357 109.929H103.071V117.964H95.0357V109.929ZM103.071 117.964H111.107V126H103.071V117.964ZM111.107 117.964H119.143V126H111.107V117.964ZM119.143 117.964H127.179V126H119.143V117.964ZM119.143 109.929H127.179V117.964H119.143V109.929ZM111.107 109.929H119.143V117.964H111.107V109.929ZM103.071 109.929H111.107V117.964H103.071V109.929ZM233.229 45.6429H241.265V53.6786H233.229V45.6429ZM225.193 45.6429H233.229V53.6786H225.193V45.6429ZM225.193 53.6786H233.229V61.7143H225.193V53.6786ZM225.193 61.7143H233.229V69.75H225.193V61.7143ZM225.193 69.75H233.229V77.7857H225.193V69.75ZM225.193 77.7857H233.229V85.8214H225.193V77.7857ZM225.193 85.8214H233.229V93.8571H225.193V85.8214ZM225.193 93.8571H233.229V101.893H225.193V93.8571ZM225.193 101.893H233.229V109.929H225.193V101.893ZM225.193 109.929H233.229V117.964H225.193V109.929ZM225.193 117.964H233.229V126H225.193V117.964ZM233.229 117.964H241.265V126H233.229V117.964ZM233.229 109.929H241.265V117.964H233.229V109.929ZM233.229 101.893H241.265V109.929H233.229V101.893ZM233.229 93.8571H241.265V101.893H233.229V93.8571ZM233.229 85.8214H241.265V93.8571H233.229V85.8214ZM233.229 77.7857H241.265V85.8214H233.229V77.7857ZM233.229 69.75H241.265V77.7857H233.229V69.75ZM233.229 61.7143H241.265V69.75H233.229V61.7143ZM233.229 53.6786H241.265V61.7143H233.229V53.6786ZM241.265 85.8214H249.3V93.8571H241.265V85.8214ZM249.3 85.8214H257.336V93.8571H249.3V85.8214ZM249.3 77.7857H257.336V85.8214H249.3V77.7857ZM241.265 77.7857H249.3V85.8214H241.265V77.7857ZM249.3 69.75H257.336V77.7857H249.3V69.75ZM257.336 69.75H265.372V77.7857H257.336V69.75ZM257.336 61.7143H265.372V69.75H257.336V61.7143ZM257.336 53.6786H265.372V61.7143H257.336V53.6786ZM257.336 45.6429H265.372V53.6786H257.336V45.6429ZM265.372 45.6429H273.408V53.6786H265.372V45.6429ZM265.372 53.6786H273.408V61.7143H265.372V53.6786ZM265.372 61.7143H273.408V69.75H265.372V61.7143ZM249.3 93.8571H257.336V101.893H249.3V93.8571ZM257.336 93.8571H265.372V101.893H257.336V93.8571ZM257.336 101.893H265.372V109.929H257.336V101.893ZM257.336 109.929H265.372V117.964H257.336V109.929ZM257.336 117.964H265.372V126H257.336V117.964ZM265.372 117.964H273.408V126H265.372V117.964ZM265.372 109.929H273.408V117.964H265.372V109.929ZM265.372 101.893H273.408V109.929H265.372V101.893ZM265.372 93.8571H273.408V101.893H265.372V93.8571ZM257.336 85.8214H265.372V93.8571H257.336V85.8214ZM379.479 85.8214H387.515V93.8571H379.479V85.8214ZM387.515 85.8214H395.55V93.8571H387.515V85.8214ZM395.55 85.8214H403.586V93.8571H395.55V85.8214ZM403.586 85.8214H411.622V93.8571H403.586V85.8214ZM387.515 93.8571H395.55V101.893H387.515V93.8571ZM379.479 93.8571H387.515V101.893H379.479V93.8571ZM395.55 93.8571H403.586V101.893H395.55V93.8571ZM403.586 93.8571H411.622V101.893H403.586V93.8571ZM411.622 101.893H419.658V109.929H411.622V101.893ZM419.658 93.8571H427.693V101.893H419.658V93.8571ZM411.622 93.8571H419.658V101.893H411.622V93.8571ZM419.658 101.893H427.693V109.929H419.658V101.893ZM411.622 109.929H419.658V117.964H411.622V109.929ZM419.658 109.929H427.693V117.964H419.658V109.929ZM419.658 117.964H427.693V126H419.658V117.964ZM411.622 117.964H419.658V126H411.622V117.964ZM379.479 117.964H387.515V126H379.479V117.964ZM371.443 117.964H379.479V126H371.443V117.964ZM371.443 109.929H379.479V117.964H371.443V109.929ZM379.479 109.929H387.515V117.964H379.479V109.929ZM379.479 101.893H387.515V109.929H379.479V101.893ZM371.443 101.893H379.479V109.929H371.443V101.893ZM371.443 93.8571H379.479V101.893H371.443V93.8571ZM371.443 85.8214H379.479V93.8571H371.443V85.8214ZM371.443 77.7857H379.479V85.8214H371.443V77.7857ZM379.479 77.7857H387.515V85.8214H379.479V77.7857ZM371.443 45.6429H379.479V53.6786H371.443V45.6429ZM379.479 45.6429H387.515V53.6786H379.479V45.6429ZM387.515 45.6429H395.55V53.6786H387.515V45.6429ZM395.55 45.6429H403.586V53.6786H395.55V45.6429ZM403.586 45.6429H411.622V53.6786H403.586V45.6429ZM411.622 45.6429H419.658V53.6786H411.622V45.6429ZM411.622 53.6786H419.658V61.7143H411.622V53.6786ZM403.586 53.6786H411.622V61.7143H403.586V53.6786ZM395.55 53.6786H403.586V61.7143H395.55V53.6786ZM387.515 53.6786H395.55V61.7143H387.515V53.6786ZM379.479 53.6786H387.515V61.7143H379.479V53.6786ZM371.443 53.6786H379.479V61.7143H371.443V53.6786ZM371.443 61.7143H379.479V69.75H371.443V61.7143ZM371.443 69.75H379.479V77.7857H371.443V69.75ZM379.479 69.75H387.515V77.7857H379.479V69.75ZM379.479 61.7143H387.515V69.75H379.479V61.7143ZM411.622 61.7143H419.658V69.75H411.622V61.7143ZM419.658 61.7143H427.693V69.75H419.658V61.7143ZM419.658 53.6786H427.693V61.7143H419.658V53.6786ZM419.658 69.75H427.693V77.7857H419.658V69.75ZM411.622 69.75H419.658V77.7857H411.622V69.75ZM411.622 77.7857H419.658V85.8214H411.622V77.7857ZM419.658 77.7857H427.693V85.8214H419.658V77.7857ZM411.622 85.8214H419.658V93.8571H411.622V85.8214ZM541.821 53.6786H549.857V61.7143H541.821V53.6786ZM549.857 53.6786H557.893V61.7143H549.857V53.6786ZM549.857 45.6429H557.893V53.6786H549.857V45.6429ZM557.893 53.6786H565.929V61.7143H557.893V53.6786ZM557.893 61.7143H565.929V69.75H557.893V61.7143ZM565.929 61.7143H573.964V69.75H565.929V61.7143ZM549.857 61.7143H557.893V69.75H549.857V61.7143ZM541.821 61.7143H549.857V69.75H541.821V61.7143ZM533.786 61.7143H541.821V69.75H533.786V61.7143ZM533.786 69.75H541.821V77.7857H533.786V69.75ZM525.75 69.75H533.786V77.7857H525.75V69.75ZM541.821 69.75H549.857V77.7857H541.821V69.75ZM533.786 77.7857H541.821V85.8214H533.786V77.7857ZM533.786 85.8214H541.821V93.8571H533.786V85.8214ZM533.786 93.8571H541.821V101.893H533.786V93.8571ZM541.821 93.8571H549.857V101.893H541.821V93.8571ZM549.857 93.8571H557.893V101.893H549.857V93.8571ZM557.893 93.8571H565.929V101.893H557.893V93.8571ZM565.929 93.8571H573.964V101.893H565.929V93.8571ZM573.964 93.8571H582V101.893H573.964V93.8571ZM573.964 85.8214H582V93.8571H573.964V85.8214ZM573.964 77.7857H582V85.8214H573.964V77.7857ZM573.964 69.75H582V77.7857H573.964V69.75ZM565.929 69.75H573.964V77.7857H565.929V69.75ZM557.893 69.75H565.929V77.7857H557.893V69.75ZM565.929 77.7857H573.964V85.8214H565.929V77.7857ZM565.929 85.8214H573.964V93.8571H565.929V85.8214ZM565.929 101.893H573.964V109.929H565.929V101.893ZM573.964 101.893H582V109.929H573.964V101.893ZM573.964 109.929H582V117.964H573.964V109.929ZM573.964 117.964H582V126H573.964V117.964ZM565.929 117.964H573.964V126H565.929V117.964ZM565.929 109.929H573.964V117.964H565.929V109.929ZM557.893 101.893H565.929V109.929H557.893V101.893ZM549.857 101.893H557.893V109.929H549.857V101.893ZM541.821 101.893H549.857V109.929H541.821V101.893ZM533.786 101.893H541.821V109.929H533.786V101.893ZM533.786 109.929H541.821V117.964H533.786V109.929ZM533.786 117.964H541.821V126H533.786V117.964ZM525.75 117.964H533.786V126H525.75V117.964ZM525.75 109.929H533.786V117.964H525.75V109.929ZM525.75 101.893H533.786V109.929H525.75V101.893ZM525.75 93.8571H533.786V101.893H525.75V93.8571ZM525.75 85.8214H533.786V93.8571H525.75V85.8214ZM525.75 77.7857H533.786V85.8214H525.75V77.7857ZM728.271 61.7143H736.307V69.75H728.271V61.7143ZM720.235 61.7143H728.271V69.75H720.235V61.7143ZM720.235 53.6786H728.271V61.7143H720.235V53.6786ZM728.271 53.6786H736.307V61.7143H728.271V53.6786ZM720.235 45.6429H728.271V53.6786H720.235V45.6429ZM712.199 45.6429H720.235V53.6786H712.199V45.6429ZM712.199 53.6786H720.235V61.7143H712.199V53.6786ZM704.164 53.6786H712.199V61.7143H704.164V53.6786ZM696.128 53.6786H704.164V61.7143H696.128V53.6786ZM696.128 45.6429H704.164V53.6786H696.128V45.6429ZM688.092 45.6429H696.128V53.6786H688.092V45.6429ZM704.164 45.6429H712.199V53.6786H704.164V45.6429ZM688.092 53.6786H696.128V61.7143H688.092V53.6786ZM680.057 53.6786H688.092V61.7143H680.057V53.6786ZM680.057 61.7143H688.092V69.75H680.057V61.7143ZM688.092 61.7143H696.128V69.75H688.092V61.7143ZM688.092 69.75H696.128V77.7857H688.092V69.75ZM688.092 77.7857H696.128V85.8214H688.092V77.7857ZM680.057 77.7857H688.092V85.8214H680.057V77.7857ZM680.057 69.75H688.092V77.7857H680.057V69.75ZM688.092 85.8214H696.128V93.8571H688.092V85.8214ZM696.128 85.8214H704.164V93.8571H696.128V85.8214ZM696.128 77.7857H704.164V85.8214H696.128V77.7857ZM704.164 77.7857H712.199V85.8214H704.164V77.7857ZM712.199 77.7857H720.235V85.8214H712.199V77.7857ZM720.235 77.7857H728.271V85.8214H720.235V77.7857ZM720.235 85.8214H728.271V93.8571H720.235V85.8214ZM712.199 85.8214H720.235V93.8571H712.199V85.8214ZM704.164 85.8214H712.199V93.8571H704.164V85.8214ZM728.271 85.8214H736.307V93.8571H728.271V85.8214ZM728.271 93.8571H736.307V101.893H728.271V93.8571ZM720.235 93.8571H728.271V101.893H720.235V93.8571ZM712.199 109.929H720.235V117.964H712.199V109.929ZM720.235 109.929H728.271V117.964H720.235V109.929ZM720.235 101.893H728.271V109.929H720.235V101.893ZM728.271 101.893H736.307V109.929H728.271V101.893ZM728.271 109.929H736.307V117.964H728.271V109.929ZM720.235 117.964H728.271V126H720.235V117.964ZM712.199 117.964H720.235V126H712.199V117.964ZM704.164 117.964H712.199V126H704.164V117.964ZM696.128 117.964H704.164V126H696.128V117.964ZM688.092 117.964H696.128V126H688.092V117.964ZM688.092 109.929H696.128V117.964H688.092V109.929ZM696.128 109.929H704.164V117.964H696.128V109.929ZM704.164 109.929H712.199V117.964H704.164V109.929ZM680.057 109.929H688.092V117.964H680.057V109.929ZM680.057 101.893H688.092V109.929H680.057V101.893ZM688.092 101.893H696.128V109.929H688.092V101.893ZM882.578 61.7143H890.613V69.75H882.578V61.7143ZM874.542 61.7143H882.578V69.75H874.542V61.7143ZM874.542 53.6786H882.578V61.7143H874.542V53.6786ZM882.578 53.6786H890.613V61.7143H882.578V53.6786ZM874.542 45.6429H882.578V53.6786H874.542V45.6429ZM866.506 45.6429H874.542V53.6786H866.506V45.6429ZM866.506 53.6786H874.542V61.7143H866.506V53.6786ZM858.47 53.6786H866.506V61.7143H858.47V53.6786ZM850.435 53.6786H858.47V61.7143H850.435V53.6786ZM850.435 45.6429H858.47V53.6786H850.435V45.6429ZM842.399 45.6429H850.435V53.6786H842.399V45.6429ZM858.47 45.6429H866.506V53.6786H858.47V45.6429ZM842.399 53.6786H850.435V61.7143H842.399V53.6786ZM834.363 53.6786H842.399V61.7143H834.363V53.6786ZM834.363 61.7143H842.399V69.75H834.363V61.7143ZM842.399 61.7143H850.435V69.75H842.399V61.7143ZM842.399 69.75H850.435V77.7857H842.399V69.75ZM842.399 77.7857H850.435V85.8214H842.399V77.7857ZM834.363 77.7857H842.399V85.8214H834.363V77.7857ZM834.363 69.75H842.399V77.7857H834.363V69.75ZM842.399 85.8214H850.435V93.8571H842.399V85.8214ZM850.435 85.8214H858.47V93.8571H850.435V85.8214ZM850.435 77.7857H858.47V85.8214H850.435V77.7857ZM858.47 77.7857H866.506V85.8214H858.47V77.7857ZM866.506 77.7857H874.542V85.8214H866.506V77.7857ZM874.542 77.7857H882.578V85.8214H874.542V77.7857ZM874.542 85.8214H882.578V93.8571H874.542V85.8214ZM866.506 85.8214H874.542V93.8571H866.506V85.8214ZM858.47 85.8214H866.506V93.8571H858.47V85.8214ZM882.578 85.8214H890.613V93.8571H882.578V85.8214ZM882.578 93.8571H890.613V101.893H882.578V93.8571ZM874.542 93.8571H882.578V101.893H874.542V93.8571ZM866.506 109.929H874.542V117.964H866.506V109.929ZM874.542 109.929H882.578V117.964H874.542V109.929ZM874.542 101.893H882.578V109.929H874.542V101.893ZM882.578 101.893H890.613V109.929H882.578V101.893ZM882.578 109.929H890.613V117.964H882.578V109.929ZM874.542 117.964H882.578V126H874.542V117.964ZM866.506 117.964H874.542V126H866.506V117.964ZM858.47 117.964H866.506V126H858.47V117.964ZM850.435 117.964H858.47V126H850.435V117.964ZM842.399 117.964H850.435V126H842.399V117.964ZM842.399 109.929H850.435V117.964H842.399V109.929ZM850.435 109.929H858.47V117.964H850.435V109.929ZM858.47 109.929H866.506V117.964H858.47V109.929ZM834.363 109.929H842.399V117.964H834.363V109.929ZM834.363 101.893H842.399V109.929H834.363V101.893ZM842.399 101.893H850.435V109.929H842.399V101.893ZM988.67 117.964H996.706V126H988.67V117.964ZM996.706 117.964H1004.74V126H996.706V117.964ZM996.706 109.929H1004.74V117.964H996.706V109.929ZM996.706 101.893H1004.74V109.929H996.706V101.893ZM996.706 93.8571H1004.74V101.893H996.706V93.8571ZM996.706 85.8214H1004.74V93.8571H996.706V85.8214ZM996.706 77.7857H1004.74V85.8214H996.706V77.7857ZM988.67 77.7857H996.706V85.8214H988.67V77.7857ZM988.67 85.8214H996.706V93.8571H988.67V85.8214ZM988.67 93.8571H996.706V101.893H988.67V93.8571ZM988.67 101.893H996.706V109.929H988.67V101.893ZM988.67 109.929H996.706V117.964H988.67V109.929ZM988.67 69.75H996.706V77.7857H988.67V69.75ZM996.706 69.75H1004.74V77.7857H996.706V69.75ZM996.706 61.7143H1004.74V69.75H996.706V61.7143ZM996.706 53.6786H1004.74V61.7143H996.706V53.6786ZM996.706 45.6429H1004.74V53.6786H996.706V45.6429ZM988.67 45.6429H996.706V53.6786H988.67V45.6429ZM988.67 53.6786H996.706V61.7143H988.67V53.6786ZM988.67 61.7143H996.706V69.75H988.67V61.7143Z" fill="white"/>
</svg>
